<?xml version="1.0" encoding="utf-8"?>
<!-- Generator: Adobe Illustrator 17.0.0, SVG Export Plug-In . SVG Version: 6.00 Build 0)  -->
<!DOCTYPE svg PUBLIC "-//W3C//DTD SVG 1.1//EN" "http://www.w3.org/Graphics/SVG/1.1/DTD/svg11.dtd">
<svg version="1.1" id="Layer_1" xmlns="http://www.w3.org/2000/svg" xmlns:xlink="http://www.w3.org/1999/xlink" x="0px" y="0px"
	 width="1000px" height="1000px" viewBox="0 0 1000 1000" enable-background="new 0 0 1000 1000" xml:space="preserve">
<g>
	<g>
		<path fill="#2B2663" d="M257.985,424.23c1.104-58.772,20.098-110.534,59.141-154.625c2.22-2.507,4.639-4.843,6.766-7.423
			c1.96-2.377,3.396-2.212,5.542-0.043c14.954,15.113,30.029,30.105,45.063,45.139c37.829,37.83,75.657,75.661,113.485,113.491
			c3.471,3.471,3.472,3.472,0.011,6.933c-52.619,52.618-105.237,105.235-157.858,157.851c-3.489,3.488-3.55,3.532-6.914-0.001
			c-34.433-36.162-55.427-78.884-62.656-128.34C258.958,446.222,258.366,435.168,257.985,424.23z"/>
		<path fill="#2B2663" d="M742.379,423.209c-0.587,45.137-11.698,85.948-34.864,123.341c-8.859,14.299-19.21,27.393-30.78,39.578
			c-2.198,2.315-3.533,2.297-5.802,0.023C618.057,533.149,565.127,480.2,512.116,427.333c-2.585-2.578-2.258-3.934,0.132-6.319
			c52.923-52.793,105.785-105.647,158.582-158.567c2.394-2.399,3.768-2.331,6.05,0.056c31.301,32.733,51.659,71.186,60.775,115.574
			C740.802,393.402,742.038,408.915,742.379,423.209z"/>
		<path fill="#0066CC" d="M498.296,182.162c36.641,0.36,69.664,7.463,101.007,22.218c23.214,10.928,43.933,25.402,62.445,43.099
			c3.263,3.12,3.208,3.187-0.048,6.443c-52.686,52.691-105.373,105.381-158.062,158.07c-3.381,3.381-3.388,3.374-6.703,0.058
			c-52.689-52.689-105.378-105.377-158.067-158.066c-3.324-3.324-3.388-3.392,0.084-6.693
			c34.797-33.087,75.783-53.836,123.179-61.895C474.807,183.242,487.585,182.599,498.296,182.162z"/>
		<path fill="#0066CC" d="M502.074,666.301c-52.275-0.611-98.19-15.184-139.106-45.022c-8.792-6.412-17.003-13.49-24.916-20.942
			c-1.787-1.683-2.081-2.8-0.135-4.732c18.525-18.384,36.959-36.858,55.4-55.327c17.543-17.57,35.053-35.172,52.593-52.744
			c17.296-17.328,34.639-34.608,51.88-51.991c1.994-2.01,3.204-1.741,5.057,0.116c51.338,51.46,102.721,102.877,154.099,154.297
			c1.715,1.716,3.374,3.506,5.228,5.06c2.283,1.913,2.389,3.383,0.093,5.55C650.892,611.3,638.78,621.074,625.6,629.51
			c-28.767,18.412-60.105,29.84-93.903,34.589C521.276,665.563,510.766,665.808,502.074,666.301z"/>
		<g>
			<path fill="#FFFFFF" d="M464.764,306.456c-3.637-1.978-7.124-3.87-10.608-5.769c-14.502-7.904-28.997-15.823-43.518-23.692
				c-1.089-0.59-1.565-1.197-1.539-2.499c0.093-4.679,0.007-9.361,0.075-14.041c0.008-0.555,0.405-1.364,0.862-1.614
				c18.038-9.837,36.105-19.623,54.17-29.412c0.126-0.069,0.282-0.084,0.646-0.187c0.033,0.517,0.086,0.974,0.087,1.432
				c0.006,5.577-0.025,11.154,0.029,16.731c0.01,1.053-0.328,1.572-1.276,2.024c-11.807,5.63-23.592,11.305-35.382,16.972
				c-0.656,0.316-1.299,0.66-2.201,1.121c3.935,1.966,7.605,3.804,11.278,5.634c8.814,4.392,17.637,8.769,26.429,13.205
				c0.498,0.251,1.073,0.974,1.079,1.484c0.072,5.974,0.042,11.95,0.033,17.926C464.927,305.91,464.864,306.048,464.764,306.456z"/>
			<path fill="#FFFFFF" d="M535.599,306.445c0-2.79,0-5.317,0-7.845c0-3.436,0.039-6.873-0.023-10.308
				c-0.019-1.04,0.309-1.572,1.264-2.042c12.188-5.99,24.351-12.03,36.52-18.059c0.264-0.131,0.521-0.275,1.016-0.538
				c-0.868-0.449-1.571-0.83-2.289-1.182c-11.746-5.76-23.493-11.517-35.241-17.273c-0.674-0.33-1.279-0.584-1.27-1.582
				c0.052-5.926,0.03-11.852,0.037-17.778c0-0.142,0.055-0.284,0.128-0.632c0.478,0.221,0.912,0.392,1.319,0.613
				c17.713,9.608,35.42,19.228,53.145,28.814c0.909,0.491,1.239,1.037,1.227,2.072c-0.058,4.73-0.046,9.462-0.007,14.193
				c0.007,0.856-0.262,1.337-1.02,1.75c-17.913,9.76-35.813,19.543-53.718,29.319C536.434,306.103,536.159,306.2,535.599,306.445z"
				/>
			<path fill="#FFFFFF" d="M523.108,218.371c-1.719,4.589-3.336,8.909-4.956,13.228c-10.44,27.83-20.895,55.654-31.282,83.503
				c-0.594,1.593-1.262,2.267-3.046,2.162c-3.016-0.179-6.051-0.049-9.285-0.049c0.176-0.595,0.271-1.007,0.418-1.4
				c11.974-31.98,23.959-63.956,35.9-95.948c0.444-1.189,1.024-1.556,2.249-1.524C516.332,218.426,519.562,218.371,523.108,218.371z
				"/>
		</g>
		<g>
			<path fill="#FFFFFF" d="M647.267,371.391c15.878,0,31.756-0.002,47.635,0.001c8.458,0.002,14.052,5.595,14.053,14.057
				c0.003,25.882,0.003,51.765,0,77.647c-0.001,8.454-5.604,14.053-14.061,14.054c-31.756,0.002-63.513,0.003-95.269,0
				c-8.446-0.001-14.053-5.611-14.054-14.061c-0.003-25.882-0.003-51.765,0-77.647c0.001-8.445,5.611-14.048,14.062-14.05
				C615.511,371.388,631.389,371.391,647.267,371.391z M594.383,406.705c0,0.615,0,1.073,0,1.53c0,18.266,0,36.533,0,54.799
				c0,3.663,1.63,5.303,5.273,5.303c31.76,0.001,63.519,0.001,95.279,0c3.545,0,5.207-1.671,5.207-5.233
				c0.002-18.312,0.001-36.624,0.001-54.937c0-0.484,0-0.968,0-1.461C664.808,406.705,629.669,406.705,594.383,406.705z
				 M594.394,397.732c35.336,0,70.507,0,105.749,0c0-4.132,0.001-8.166,0-12.2c-0.002-3.725-1.622-5.327-5.386-5.327
				c-31.667,0-63.333,0-95,0c-0.413,0-0.828-0.017-1.239,0.012c-2.2,0.155-4.061,1.892-4.1,4.087
				C594.338,388.748,594.394,393.195,594.394,397.732z"/>
			<path fill="#FFFFFF" d="M607.656,384.611c2.3,0.004,4.338,2.049,4.352,4.366c0.015,2.421-2.033,4.465-4.452,4.444
				c-2.366-0.021-4.357-2.034-4.357-4.407C603.199,386.631,605.249,384.606,607.656,384.611z"/>
			<path fill="#FFFFFF" d="M625.228,388.924c0.021,2.454-1.986,4.5-4.412,4.498c-2.372-0.003-4.367-1.986-4.398-4.372
				c-0.03-2.345,2.089-4.44,4.492-4.442C623.128,384.605,625.208,386.685,625.228,388.924z"/>
			<path fill="#FFFFFF" d="M634.025,393.422c-2.3,0.012-4.379-2.064-4.388-4.382c-0.009-2.324,2.036-4.402,4.358-4.427
				c2.329-0.026,4.42,2.001,4.453,4.315C638.481,391.319,636.424,393.41,634.025,393.422z"/>
		</g>
		<g>
			<path fill="#FFFFFF" d="M377.595,434.873c0,18.223-0.128,36.448,0.055,54.669c0.088,8.75-6.845,15.616-15.592,15.582
				c-16.65-0.066-33.3-0.007-49.95-0.026c-7.218-0.008-13.293-4.74-14.859-11.559c-0.254-1.106-0.356-2.271-0.356-3.409
				c-0.018-36.84-0.022-73.679-0.01-110.519c0.003-8.359,6.465-14.856,14.883-14.973c4.031-0.056,8.062-0.014,12.094-0.014
				c12.848,0,25.696-0.015,38.544,0.009c7.203,0.013,13.244,4.695,14.802,11.478c0.283,1.231,0.372,2.531,0.374,3.799
				C377.602,398.23,377.595,416.551,377.595,434.873z M367.74,393.245c-20.385,0-40.718,0-61.062,0c0,27.795,0,55.529,0,83.254
				c20.4,0,40.708,0,61.062,0C367.74,448.72,367.74,421.007,367.74,393.245z M337.337,377.104c-2.161,0-4.322,0-6.484,0
				c-1.343,0-2.686-0.023-4.028,0.008c-1.139,0.026-1.933,0.814-1.909,1.821c0.023,0.979,0.789,1.688,1.883,1.742
				c0.131,0.006,0.262,0.003,0.393,0.003c6.647,0,13.295,0.002,19.942-0.002c0.359,0,0.802,0.076,1.058-0.099
				c0.48-0.328,1.1-0.763,1.202-1.25c0.112-0.531-0.154-1.295-0.524-1.727c-0.295-0.345-0.993-0.469-1.514-0.475
				C344.017,377.085,340.677,377.105,337.337,377.104z M332.66,490.856c0.018,2.518,2.07,4.554,4.584,4.547
				c2.543-0.007,4.589-2.109,4.555-4.678c-0.033-2.505-2.118-4.525-4.635-4.492C334.648,486.267,332.642,488.326,332.66,490.856z"/>
			<path fill="#FFFFFF" d="M398.702,379.321c-2.421,0-4.64,0-6.753,0c-1.926-17.718-11.855-27.171-29.459-29.082
				c0-2.062,0-4.31,0-6.72c8.894,0.112,16.814,2.913,23.565,8.723C394.279,359.318,398.439,368.358,398.702,379.321z"/>
			<path fill="#FFFFFF" d="M388.062,379.295c-2.244,0-4.49,0-6.706,0c-1.284-11.273-7.706-17.228-18.883-18.408
				c0-2.19,0-4.438,0-6.685C375.362,353.607,388.367,364.95,388.062,379.295z"/>
		</g>
		<g>
			<path fill="#FFFFFF" d="M497.193,551.623c0,8.359-0.021,16.718,0.021,25.077c0.007,1.295-0.347,2.113-1.556,2.762
				c-2.63,1.41-3.821,4.403-3.064,7.205c0.77,2.849,3.29,4.807,6.202,4.818c2.917,0.012,5.437-1.915,6.238-4.769
				c0.785-2.795-0.388-5.8-3.003-7.229c-1.177-0.643-1.603-1.412-1.6-2.736c0.037-16.857,0.024-33.713,0.026-50.57
				c0-0.369-0.106-0.816,0.062-1.09c0.288-0.471,0.696-1.062,1.159-1.177c0.469-0.116,1.15,0.171,1.58,0.492
				c0.37,0.277,0.534,0.843,0.761,1.295c9.859,19.719,19.704,39.446,29.598,59.148c0.649,1.292,0.668,2.315,0.009,3.606
				c-3.584,7.025-7.107,14.082-10.583,21.161c-0.487,0.991-1.042,1.274-2.104,1.271c-14.778-0.036-29.557-0.036-44.335,0.001
				c-1.033,0.003-1.527-0.337-1.976-1.247c-3.531-7.153-7.103-14.287-10.709-21.402c-0.553-1.091-0.587-1.991-0.026-3.108
				c9.992-19.906,19.944-39.831,29.92-59.745c0.259-0.518,0.593-1.105,1.058-1.391c1.134-0.697,2.305,0.184,2.314,1.718
				c0.023,3.879,0.009,7.759,0.009,11.638C497.193,542.109,497.193,546.866,497.193,551.623z"/>
			<path fill="#FFFFFF" d="M552.176,560.857c0.955,0,1.915-0.016,2.873,0.004c1.166,0.024,1.808,0.619,1.811,1.806
				c0.008,3.095,0.015,6.19-0.006,9.284c-0.008,1.256-0.715,1.814-1.949,1.81c-3.002-0.012-6.005-0.003-9.007-0.004
				c-1.231,0-1.904-0.581-1.905-1.848c-0.002-3.049,0.007-6.097-0.005-9.146c-0.005-1.264,0.624-1.878,1.856-1.902
				c0.913-0.018,1.826-0.004,2.735-0.004c0.309-22.16-17.959-45.204-43.329-47.81c0,0.819,0,1.622,0,2.425
				c0,1.186-0.583,1.806-1.778,1.807c-3.095,0.004-6.19,0.003-9.285,0.001c-1.193-0.001-1.785-0.608-1.785-1.798
				c0-0.777,0-1.554,0-2.568c-11.543,1.544-21.294,6.319-29.297,14.5c-9.023,9.225-13.68,20.37-14.24,33.442
				c1.106,0,2.018-0.013,2.929,0.003c1.228,0.022,1.872,0.627,1.868,1.892c-0.009,3.049-0.002,6.097-0.004,9.146
				c-0.001,1.261-0.662,1.857-1.897,1.857c-3.049,0.002-6.097,0.004-9.146-0.002c-1.182-0.002-1.811-0.62-1.818-1.792
				c-0.018-3.095-0.012-6.19-0.007-9.284c0.002-1.186,0.629-1.79,1.799-1.816c0.961-0.021,1.922-0.004,2.883-0.004
				c1.774-22.992,13.136-39.027,34.249-48.27c-8.756,0-17.442,0-26.259,0c-0.121,0.288-0.259,0.667-0.433,1.028
				c-1.315,2.736-4.328,4.2-7.273,3.541c-2.912-0.651-5.031-3.339-5.002-6.345c0.029-2.976,2.056-5.515,4.971-6.226
				c2.896-0.706,5.988,0.744,7.267,3.499c0.338,0.728,0.598,1.17,1.543,1.167c12.241-0.038,24.482-0.025,36.723-0.028
				c0.317,0,0.635-0.044,1.141-0.082c0-0.935-0.017-1.843,0.004-2.75c0.033-1.423,0.515-1.942,1.909-1.953
				c3.002-0.024,6.005-0.023,9.007-0.001c1.395,0.01,1.891,0.533,1.928,1.937c0.023,0.871,0.004,1.743,0.004,2.768
				c0.571,0.031,1.056,0.08,1.541,0.08c12.01,0.004,24.02-0.005,36.03,0.019c0.92,0.002,1.427-0.188,1.845-1.138
				c1.225-2.784,4.347-4.223,7.243-3.524c2.966,0.717,5.029,3.346,4.985,6.353c-0.044,2.976-2.124,5.57-4.987,6.219
				c-2.946,0.668-6.027-0.759-7.243-3.541c-0.414-0.946-0.912-1.141-1.834-1.137c-8.266,0.03-16.533,0.017-25.114,0.017
				C538.979,521.766,550.342,537.779,552.176,560.857z"/>
			<path fill="#FFFFFF" d="M498.835,626.975c-8.863,0-17.725,0.002-26.588-0.001c-1.989-0.001-2.465-0.463-2.471-2.419
				c-0.008-2.77-0.016-5.539,0.004-8.309c0.011-1.622,0.542-2.169,2.168-2.17c17.91-0.01,35.82-0.01,53.73,0
				c1.688,0.001,2.185,0.541,2.194,2.286c0.013,2.77,0.013,5.539,0,8.309c-0.009,1.791-0.523,2.301-2.31,2.302
				C516.653,626.978,507.744,626.975,498.835,626.975z"/>
			<path fill="#FFFFFF" d="M522.979,630.327c0,3.785,0.014,7.471-0.01,11.157c-0.006,0.981-0.587,1.515-1.565,1.586
				c-0.368,0.027-0.739,0.015-1.108,0.015c-14.318,0.001-28.635,0.001-42.953,0c-2.422,0-2.684-0.266-2.685-2.716
				c-0.002-3.316,0-6.632,0-10.042C490.779,630.327,506.78,630.327,522.979,630.327z"/>
		</g>
	</g>
	<g>
		<g>
			<path fill="#0066CC" d="M106.79,780.363c1.073,0.768,2.874,1.61,5.403,2.529c2.53,0.92,5.443,1.38,8.739,1.38
				c3.219,0,5.786-0.555,7.703-1.667c1.916-1.11,3.372-2.817,4.368-5.115c0.995-2.3,1.648-5.155,1.955-8.566
				c0.305-3.41,0.459-7.415,0.459-12.016v-41.391h15.867v41.391c0,6.209-0.327,11.863-0.978,16.959
				c-0.652,5.099-2.031,9.448-4.139,13.05c-2.109,3.603-5.155,6.401-9.14,8.393c-3.987,1.992-9.353,2.99-16.096,2.99
				c-6.899,0-12.802-1.685-17.706-5.06L106.79,780.363z"/>
			<path fill="#0066CC" d="M168.647,797.034l32.192-81.633h12.879l32.078,81.633H229.01l-7.474-20.351h-28.628l-7.474,20.351
				H168.647z M207.279,732.532l-11.728,32.998h23.111L207.279,732.532z"/>
			<path fill="#0066CC" d="M281.897,744.72v52.315h-15.866v-81.633h12.302l42.542,53.579v-53.464h15.866v81.519h-12.877
				L281.897,744.72z"/>
			<path fill="#0066CC" d="M421.938,783.122v13.912h-56.683v-81.633h55.647v13.912h-39.781v19.66H415.5v12.879h-34.379v21.27
				H421.938z"/>
			<path fill="#2B2663" d="M478.161,780.363c1.072,0.768,2.874,1.61,5.405,2.529c2.528,0.92,5.44,1.38,8.737,1.38
				c3.22,0,5.786-0.555,7.703-1.667c1.917-1.11,3.373-2.817,4.371-5.115c0.995-2.3,1.647-5.155,1.955-8.566
				c0.305-3.41,0.458-7.415,0.458-12.016v-41.391h15.867v41.391c0,6.209-0.327,11.863-0.976,16.959
				c-0.652,5.099-2.031,9.448-4.139,13.05c-2.111,3.603-5.156,6.401-9.14,8.393c-3.987,1.992-9.353,2.99-16.099,2.99
				c-6.899,0-12.802-1.685-17.705-5.06L478.161,780.363z"/>
			<path fill="#2B2663" d="M540.016,797.034l32.195-81.633h12.876l32.081,81.633h-16.789l-7.471-20.351h-28.631l-7.471,20.351
				H540.016z M578.649,732.532l-11.728,32.998h23.109L578.649,732.532z"/>
			<path fill="#2B2663" d="M703.972,797.034v-54.039l-21.04,40.242h-8.625l-21.04-40.242v54.039H637.4v-81.633h17.018l24.146,46.451
				l24.375-46.451h16.901v81.633H703.972z"/>
			<path fill="#2B2663" d="M805.037,783.122v13.912h-56.684v-81.633h55.648v13.912H764.22v19.66h34.379v12.879H764.22v21.27H805.037
				z"/>
			<path fill="#2B2663" d="M877.013,736.786c-0.537-0.534-1.516-1.264-2.934-2.184c-1.418-0.92-3.144-1.82-5.173-2.702
				c-2.031-0.879-4.237-1.628-6.612-2.241c-2.375-0.614-4.791-0.92-7.242-0.92c-4.368,0-7.63,0.804-9.773,2.415
				c-2.149,1.61-3.22,3.872-3.22,6.784c0,1.686,0.404,3.085,1.208,4.196c0.804,1.111,1.971,2.089,3.507,2.931
				c1.532,0.845,3.468,1.61,5.805,2.3c2.337,0.69,5.039,1.419,8.107,2.184c3.984,1.074,7.608,2.224,10.866,3.449
				c3.256,1.227,6.015,2.76,8.279,4.599c2.258,1.841,4.003,4.044,5.23,6.611c1.224,2.57,1.841,5.732,1.841,9.486
				c0,4.368-0.826,8.105-2.473,11.21c-1.65,3.104-3.85,5.616-6.61,7.531c-2.76,1.917-5.98,3.316-9.658,4.196
				c-3.681,0.881-7.512,1.323-11.499,1.323c-6.133,0-12.186-0.92-18.166-2.76c-5.98-1.841-11.346-4.445-16.096-7.819l7.013-13.682
				c0.69,0.69,1.933,1.591,3.736,2.702c1.8,1.111,3.929,2.224,6.383,3.333c2.451,1.112,5.173,2.052,8.161,2.817
				c2.991,0.768,6.056,1.151,9.2,1.151c8.737,0,13.105-2.798,13.105-8.394c0-1.839-0.499-3.372-1.494-4.599
				c-0.995-1.226-2.413-2.3-4.254-3.219c-1.841-0.92-4.063-1.763-6.667-2.529c-2.607-0.766-5.519-1.571-8.739-2.415
				c-3.91-1.073-7.302-2.243-10.176-3.508c-2.874-1.264-5.271-2.739-7.185-4.426c-1.917-1.685-3.354-3.68-4.311-5.98
				c-0.96-2.299-1.437-5.019-1.437-8.163c0-4.139,0.763-7.819,2.299-11.038c1.532-3.219,3.659-5.901,6.381-8.048
				c2.721-2.145,5.882-3.775,9.487-4.886c3.602-1.11,7.474-1.667,11.613-1.667c5.748,0,11.035,0.901,15.864,2.702
				c4.829,1.801,9.045,3.929,12.65,6.381L877.013,736.786z"/>
		</g>
		<path fill="#2B2663" d="M946.701,756.94c-8.144-10.052-16.128-19.908-24.113-29.763c-6.364-7.854-12.73-15.706-19.092-23.561
			c-0.465-0.574-0.933-1.148-1.365-1.748c-1.872-2.602-1.797-5.188,0.673-7.228c2.503-2.066,5.16-1.55,7.209,0.806
			c3.072,3.533,5.951,7.233,8.902,10.87c12.195,15.029,24.392,30.055,36.576,45.093c4.023,4.965,3.984,6.176-0.063,11.164
			c-14.368,17.71-28.72,35.433-43.098,53.135c-1.082,1.332-2.119,3.194-3.542,3.635c-1.84,0.57-4.683,0.702-5.916-0.354
			c-1.234-1.056-1.418-3.834-1.289-5.806c0.081-1.246,1.526-2.443,2.452-3.587C918.149,792.158,932.278,774.734,946.701,756.94z"/>
		<path fill="#0066CC" d="M53.664,756.94c8.144-10.052,16.128-19.908,24.113-29.763c6.364-7.854,12.73-15.706,19.092-23.561
			c0.465-0.574,0.933-1.148,1.365-1.748c1.872-2.602,1.797-5.188-0.673-7.228c-2.503-2.066-5.16-1.55-7.209,0.806
			c-3.072,3.533-5.951,7.233-8.902,10.87c-12.195,15.029-24.392,30.055-36.576,45.093c-4.023,4.965-3.984,6.176,0.063,11.164
			c14.368,17.71,28.72,35.433,43.098,53.135c1.082,1.332,2.119,3.194,3.542,3.635c1.84,0.57,4.683,0.702,5.916-0.354
			c1.234-1.056,1.418-3.834,1.289-5.806c-0.081-1.246-1.526-2.443-2.452-3.587C82.216,792.158,68.087,774.734,53.664,756.94z"/>
	</g>
</g>
</svg>
